<?xml version="1.0" encoding="utf-8"?>
<!-- Generator: Adobe Illustrator 22.1.0, SVG Export Plug-In . SVG Version: 6.00 Build 0)  -->
<svg version="1.1" id="Layer_1" xmlns="http://www.w3.org/2000/svg" xmlns:xlink="http://www.w3.org/1999/xlink" x="0px" y="0px"
	 viewBox="0 0 512 512" style="enable-background:new 0 0 512 512;" xml:space="preserve">
<style type="text/css">
	.st0{fill:#3D384C;}
	.st1{fill:#4CCEA0;}
	.st2{fill:#293A42;}
	.st3{fill:#FFD543;}
	.st4{fill:#FFFFFF;}
</style>
<g>
	<path class="st0" d="M512,127.4c0,85.7,0,171.4,0,257.1c-1.7,5.1-3.6,10.1-5.2,15.2c-16.4,51.4-48,88-100.9,104.1
		c-7.3,2.2-14.3,5.4-21.4,8.1c-85.7,0-171.4,0-257.1,0c-2.5-1.4-4.8-3.5-7.4-4.1C64.5,495.2,27.4,462,8.5,408.3
		c-2.8-7.9-5.6-15.8-8.5-23.8c0-85.7,0-171.4,0-257.1c2.8-7.5,5.7-14.8,8.3-22.4C26.6,50.3,64,16.8,120.2,4.1
		c2.6-0.6,4.8-2.7,7.3-4.1c85.7,0,171.4,0,257.1,0c2.1,1.4,3.9,3.5,6.2,4c57.2,12.5,95,46.5,113.5,102
		C506.6,113.2,509.4,120.3,512,127.4z M495.4,255.3C495.4,255.3,495.4,255.3,495.4,255.3c0.1-34.9,0.4-69.8,0-104.7
		c-0.3-23.7-5.9-46.3-18.3-66.9c-26.5-44.1-66.2-66.2-116.9-67c-63.3-0.9-126.6-0.4-190,0c-13.8,0.1-27.7,1.8-41.5,3.2
		c-24.9,2.5-46.2,13.6-64.9,29.5C32.6,75.9,17.9,111.1,17.1,151c-1.3,64.4-0.8,128.9,0.1,193.4c0.3,26,2.7,52,15,76
		c20.8,40.5,53.3,66.3,98.5,70.7c34,3.3,68.5,0.8,102.8,1.3c42,0.7,84,2.8,126,2.4c23.8-0.2,47.1-5.5,68.1-18
		c45.7-27.1,66.5-68.3,67.6-120.2C495.9,322.8,495.4,289,495.4,255.3z"/>
	<path class="st1" d="M495.4,255.3c0,33.7,0.6,67.5-0.1,101.2c-1.1,51.9-21.9,93.1-67.6,120.2c-21.1,12.5-44.4,17.8-68.1,18
		c-42,0.4-84-1.7-126-2.4c-34.3-0.5-68.8,2-102.8-1.3c-45.3-4.4-77.7-30.2-98.5-70.7c-12.3-23.9-14.6-50-15-76
		c-0.9-64.4-1.3-128.9-0.1-193.4c0.8-39.9,15.4-75.1,46.6-101.6c18.7-15.9,40-27,64.9-29.5c13.8-1.4,27.6-3.1,41.5-3.2
		c63.3-0.4,126.7-1,190,0c50.8,0.8,90.4,22.9,116.9,67c12.4,20.6,17.9,43.2,18.3,66.9C495.8,185.5,495.4,220.4,495.4,255.3
		C495.4,255.3,495.4,255.3,495.4,255.3z M416.4,350.3C416.3,350.3,416.3,350.3,416.4,350.3c-0.1-6.4,0-12.9-0.1-19.3
		c-0.2-12.5-5.9-21.4-17.2-26.9c-11.4-5.6-21.2-2.7-30.5,4.8c-7,5.7-14.1,11.3-21.5,16.4c-10.7,7.3-21.8,9.8-33.7,2.2
		c-9.9-6.3-20.4-11.5-30.3-17.8c-21.4-13.6-42.5-13.9-63.8,0.3c-10,6.7-20.2,13.6-31.1,18.5c-5.4,2.4-13.5,2.5-18.8,0.2
		c-8.4-3.7-15.9-10-23.2-15.8c-15.3-12.2-32.6-11.3-44.3,2.9c-9.4,11.4-10.2,62.8-0.3,74c18.1,20.4,38.7,37.7,65.4,45.7
		c5.4,1.6,12.2-0.4,18.2-1.4c20.1-3.5,33.7-17.5,48-30.4c12.9-11.7,21.1-11.9,34.9-1.3c9.3,7.1,18.3,14.7,28.1,21.1
		c17.9,11.5,36.9,17.9,56.9,4.7c17.9-11.9,36-23.5,52.5-37.2c6-5,8.1-15.4,10.5-23.7C417.6,362,416.4,356,416.4,350.3z M131.3,231
		c-1.6,31.9,23.6,52.3,51.2,53c26.3,0.7,52-22.3,51.8-53.4c-0.2-31.8-29.1-52.3-51.9-51.4C153.3,180.4,131.3,201.6,131.3,231z
		 M256.3,79.3c-28.9-3-52.3,26.2-52,52.3c0.2,30.6,21.4,52.4,50.8,53.7c32.2,1.5,52.4-27.6,52.6-53.2
		C308.1,103.8,282.7,76.6,256.3,79.3z M327.9,179.7c-25.5-2-52.6,20.9-51.6,52.2c1,31.5,21.8,49.1,48.5,51.5
		c28,2.5,54.3-24.2,54.5-52.6C379.6,204.1,355.1,179.8,327.9,179.7z"/>
	<path class="st2" d="M416.4,350.3c0,5.7,1.2,11.7-0.3,17c-2.4,8.4-4.5,18.7-10.5,23.7c-16.4,13.7-34.6,25.3-52.5,37.2
		c-19.9,13.3-38.9,6.8-56.9-4.7c-9.8-6.3-18.8-13.9-28.1-21.1c-13.8-10.6-22-10.4-34.9,1.3c-14.3,12.9-27.9,26.9-48,30.4
		c-6,1-12.8,3.1-18.2,1.4c-26.6-8-47.3-25.3-65.4-45.7c-10-11.2-9.1-62.6,0.3-74c11.7-14.2,29-15.2,44.3-2.9
		c7.3,5.9,14.8,12.1,23.2,15.8c5.3,2.3,13.5,2.2,18.8-0.2c10.9-4.9,21-11.8,31.1-18.5c21.3-14.2,42.3-14,63.8-0.3
		c9.9,6.3,20.4,11.5,30.3,17.8c12,7.6,23.1,5,33.7-2.2c7.4-5.1,14.5-10.8,21.5-16.4c9.3-7.5,19.1-10.4,30.5-4.8
		c11.3,5.5,17,14.4,17.2,26.9C416.4,337.4,416.3,343.8,416.4,350.3C416.3,350.3,416.3,350.3,416.4,350.3z M396.6,352.7
		c0-9.1,0.5-15.2-0.2-21.2c-0.4-3.7-1.9-9.5-4.2-10.2c-3.6-1.1-8.8,0.4-12.4,2.5c-6.7,4-13,9-19.1,14c-17,13.9-35.3,15.8-54.7,6
		c-10.7-5.4-21.2-11.4-31.2-18.1c-14.7-9.9-28.8-11.2-44.1-1.2c-11,7.2-22.7,13.3-34.1,19.7c-12.8,7.3-25.9,7.4-38.5-0.1
		c-8.7-5.1-16.4-11.8-25.1-16.8c-3.7-2.2-9.1-3.5-13.1-2.5c-2.2,0.5-4.1,6.6-4.3,10.2c-0.6,7.9,1,16-0.1,23.8
		c-2.2,15.5,4.7,26,16.7,34c10.3,6.9,20.2,14.7,31.4,19.6c6.7,2.9,17.1,4,23,0.8c14.2-7.9,26.9-18.7,40-28.5
		c17.1-12.8,31-12.8,48-0.1c11.5,8.5,22.9,17.1,34.7,25.1c10.5,7.1,21.8,9.9,33.7,2.5c10.7-6.8,21.5-13.4,32.4-19.9
		C391.7,382.4,402.4,370.1,396.6,352.7z"/>
	<path class="st2" d="M131.3,231c0.1-29.5,22-50.6,51.1-51.8c22.8-0.9,51.7,19.6,51.9,51.4c0.2,31.1-25.5,54.1-51.8,53.4
		C154.8,283.3,129.7,262.9,131.3,231z M216.6,230c1.2-19.7-16.6-33.2-33.8-33.5c-18.6-0.3-35.2,15.7-35.4,34.9
		c-0.2,15,18.3,32,35,31.8C199.3,263,218.1,249,216.6,230z"/>
	<path class="st2" d="M256.3,79.3c26.4-2.7,51.8,24.5,51.4,52.8c-0.3,25.6-20.4,54.7-52.6,53.2c-29.5-1.3-50.6-23.1-50.8-53.7
		C204,105.6,227.4,76.4,256.3,79.3z M255.6,95.7c-19.2,0.2-35.1,17.4-34.5,37.3c0.6,19,15.3,32.5,35.1,32.4
		c19.3-0.2,34.6-15.4,34.5-34.3C290.5,111.6,274.5,95.5,255.6,95.7z"/>
	<path class="st2" d="M327.9,179.7c27.2,0.1,51.7,24.5,51.4,51.2c-0.3,28.4-26.5,55.1-54.5,52.6c-26.8-2.4-47.5-20-48.5-51.5
		C275.2,200.6,302.4,177.6,327.9,179.7z M360.6,229.9c-0.1-18.5-15.7-34.1-33.7-33.6c-17,0.4-35.2,16.8-34.2,33
		c1.1,17.7,14.2,33.1,34.2,34.1C345,264.2,360.7,247.9,360.6,229.9z"/>
	<path class="st3" d="M396.6,352.7c5.8,17.4-4.9,29.7-21,39.3c-10.9,6.5-21.7,13.2-32.4,19.9c-11.9,7.5-23.1,4.7-33.7-2.5
		c-11.8-8-23.3-16.6-34.7-25.1c-17-12.7-30.9-12.7-48,0.1c-13.2,9.8-25.8,20.6-40,28.5c-5.9,3.3-16.3,2.2-23-0.8
		c-11.2-4.9-21.1-12.7-31.4-19.6c-12-8.1-18.9-18.5-16.7-34c1.1-7.8-0.5-15.9,0.1-23.8c0.3-3.7,2.1-9.7,4.3-10.2
		c4-1,9.4,0.3,13.1,2.5c8.7,5.1,16.5,11.7,25.1,16.8c12.6,7.5,25.7,7.4,38.5,0.1c11.4-6.5,23.1-12.5,34.1-19.7
		c15.3-10,29.4-8.7,44.1,1.2c9.9,6.7,20.5,12.7,31.2,18.1c19.3,9.8,37.7,8,54.7-6c6.1-5,12.3-10,19.1-14c3.5-2.1,8.8-3.6,12.4-2.5
		c2.3,0.7,3.8,6.5,4.2,10.2C397.1,337.5,396.6,343.6,396.6,352.7z"/>
	<path class="st4" d="M216.6,230c1.5,19-17.2,33-34.2,33.2c-16.7,0.2-35.2-16.8-35-31.8c0.2-19.1,16.8-35.2,35.4-34.9
		C199.9,196.8,217.8,210.3,216.6,230z"/>
	<path class="st4" d="M255.6,95.7c18.9-0.2,34.9,15.9,35,35.4c0.2,18.9-15.1,34.1-34.5,34.3c-19.8,0.2-34.5-13.4-35.1-32.4
		C220.6,113.1,236.5,95.9,255.6,95.7z"/>
	<path class="st4" d="M360.6,229.9c0.1,18-15.6,34.3-33.7,33.4c-20-1-33.1-16.4-34.2-34.1c-1-16.2,17.2-32.5,34.2-33
		C344.9,195.8,360.5,211.4,360.6,229.9z"/>
</g>
</svg>
